<svg width="570" height="285" viewBox="0 0 570 285" fill="none" xmlns="http://www.w3.org/2000/svg">
<path fill-rule="evenodd" clip-rule="evenodd" d="M61.3491 20.1516C94.8751 15.41 129.069 22.7608 153.99 42.8604C198.585 78.7761 196.679 141.786 149.762 183.604C109.639 219.342 49.647 228.066 5.2312 207.429C42.7728 214.432 85.6033 203.706 116.202 176.439C160.827 136.655 162.624 76.774 120.254 42.6118C103.791 29.402 83.0968 21.9835 61.3491 20.1516Z" fill="white"/>
<path fill-rule="evenodd" clip-rule="evenodd" d="M7.45204 98.7704C28.5335 33.2653 93.6745 -5.88235 159.735 3.32458C104.073 6.87212 53.632 43.667 35.5473 99.8256C11.9301 173.093 52.3937 251.572 125.894 275.122C133.687 277.614 141.581 279.406 149.441 280.489C132.452 281.585 114.966 279.552 97.7643 274.069C24.2635 250.519 -16.1681 172.047 7.45204 98.7704Z" fill="#EC1951"/>
<path fill-rule="evenodd" clip-rule="evenodd" d="M65.4416 202.864C46.9665 189.619 33.7831 169.549 30.9609 146.992C25.957 106.679 56.1001 73.7145 98.258 73.3618C134.313 73.0433 167.494 96.6641 179.513 128.717C164.496 107.24 138.759 92.7953 111.228 93.009C71.1495 93.3589 42.4899 124.708 47.2494 163.048C49.1183 177.911 55.7089 191.653 65.4416 202.864Z" fill="#6D6D70"/>
<path fill-rule="evenodd" clip-rule="evenodd" d="M56.3459 218.402C38.4044 218.294 20.8484 214.668 5.23254 207.429C20.0718 210.175 35.7226 210.175 51.1311 207.503L56.3459 218.402Z" fill="white"/>
<path fill-rule="evenodd" clip-rule="evenodd" d="M374.73 173.774H376.98V176.892C377.88 175.717 378.878 174.809 379.967 174.227C381.069 173.645 382.256 173.343 383.53 173.343C384.856 173.343 386.021 173.678 387.025 174.34C388.039 174.999 388.794 175.899 389.286 177.011C389.748 178.138 389.993 179.866 389.993 182.233V191.179H387.758V182.891C387.758 180.895 387.677 179.547 387.51 178.889C387.224 177.744 386.723 176.882 385.983 176.293C385.249 175.716 384.288 175.409 383.101 175.409C381.731 175.409 380.501 175.867 379.428 176.762C378.349 177.647 377.636 178.753 377.292 180.091C377.091 180.955 376.979 182.514 376.979 184.807V191.178H374.729V173.774H374.73ZM414.449 180.727C414.151 179.524 413.715 178.586 413.127 177.873C412.56 177.14 411.789 176.579 410.85 176.147C409.907 175.694 408.903 175.489 407.845 175.489C406.135 175.489 404.64 176.027 403.416 177.117C402.499 177.928 401.814 179.125 401.366 180.726L414.449 180.727ZM414.432 185.405L416.331 186.399C415.705 187.624 414.972 188.599 414.167 189.333C413.353 190.067 412.43 190.65 411.412 191.023C410.397 191.427 409.242 191.61 407.942 191.61C405.093 191.61 402.85 190.693 401.252 188.827C399.634 186.966 398.841 184.861 398.841 182.535C398.841 180.334 399.52 178.36 400.874 176.633C402.606 174.453 404.927 173.343 407.834 173.343C410.808 173.343 413.209 174.47 414.973 176.731C416.257 178.305 416.892 180.281 416.92 182.665H401.14C401.172 184.671 401.835 186.334 403.086 187.608C404.345 188.902 405.903 189.539 407.76 189.539C408.639 189.539 409.512 189.388 410.359 189.091C411.201 188.789 411.923 188.373 412.507 187.872C413.111 187.358 413.747 186.55 414.432 185.405ZM427.888 167.288H430.132V173.774H433.672V175.717H430.132V191.179H427.888V175.717H424.828V173.774H427.888V167.288ZM439.606 173.774H441.931L447.261 186.399L452.839 173.774H453.255L458.84 186.399L464.262 173.774H466.576L459.023 191.179H458.607L453.049 178.737L447.488 191.179H447.04L439.606 173.774ZM482.469 175.543C480.609 175.543 479.006 176.233 477.664 177.609C476.309 178.98 475.651 180.636 475.651 182.567C475.651 183.829 475.947 184.996 476.568 186.085C477.173 187.174 478.004 187.995 479.039 188.598C480.08 189.187 481.225 189.484 482.469 189.484C483.711 189.484 484.866 189.187 485.897 188.598C486.938 187.995 487.763 187.174 488.368 186.085C488.998 184.996 489.296 183.829 489.296 182.567C489.296 180.636 488.616 178.98 487.284 177.609C485.924 176.233 484.331 175.543 482.469 175.543ZM482.493 173.342C485.163 173.342 487.406 174.324 489.183 176.256C490.785 178.025 491.594 180.107 491.594 182.535C491.594 184.953 490.747 187.079 489.049 188.885C487.354 190.704 485.153 191.61 482.494 191.61C479.79 191.61 477.61 190.704 475.895 188.885C474.195 187.079 473.348 184.952 473.348 182.535C473.348 180.129 474.158 178.041 475.766 176.277C477.539 174.324 479.768 173.342 482.493 173.342ZM499.773 173.774H502.072V176.331C502.751 175.317 503.496 174.583 504.241 174.077C505.012 173.59 505.81 173.343 506.614 173.343C507.24 173.343 507.914 173.548 508.611 173.948L507.45 175.825C506.97 175.62 506.577 175.523 506.263 175.523C505.504 175.523 504.791 175.825 504.09 176.424C503.399 177.044 502.864 178.005 502.493 179.278C502.212 180.282 502.072 182.289 502.072 185.299V191.179H499.773V173.774ZM515.418 167.052H517.642V180.825L525.799 173.774H529.069L519.46 182.062L529.608 191.179H526.431L517.642 183.306V191.179H515.418V167.052Z" fill="#6D6D70"/>
<path fill-rule="evenodd" clip-rule="evenodd" d="M186.23 188.448H192.785V197.841C195.408 194.275 198.386 191.605 201.801 189.841C205.191 188.071 208.96 187.186 213.149 187.186C220.441 187.186 226.662 189.819 231.841 195.02C237.032 200.231 239.616 206.522 239.616 213.855C239.616 221.369 237.048 227.719 231.914 232.959C226.772 238.187 220.591 240.798 213.339 240.798C209.263 240.798 205.513 239.956 202.082 238.262C198.653 236.573 195.559 234.048 192.786 230.687V258.219H186.231V188.448H186.23ZM212.678 193.542C206.968 193.542 202.16 195.516 198.272 199.476C194.354 203.447 192.413 208.367 192.413 214.247C192.413 218.122 193.279 221.595 195.013 224.683C196.745 227.779 199.252 230.218 202.476 232.019C205.739 233.843 209.171 234.75 212.75 234.75C216.294 234.75 219.607 233.827 222.742 232.004C225.869 230.185 228.339 227.629 230.187 224.359C232.037 221.089 232.955 217.647 232.955 214.075C232.955 210.449 232.037 207.029 230.209 203.781C228.375 200.55 225.907 198.031 222.794 196.244C219.705 194.447 216.312 193.542 212.678 193.542ZM250.464 204.978H257.026V256.097H250.464V204.978ZM253.722 183.997C255.216 183.997 256.5 184.542 257.555 185.611C258.607 186.664 259.155 187.963 259.155 189.462C259.155 190.924 258.607 192.225 257.555 193.283C256.501 194.35 255.216 194.874 253.722 194.874C252.238 194.874 250.995 194.35 249.919 193.283C248.864 192.225 248.333 190.924 248.333 189.462C248.333 187.963 248.864 186.663 249.919 185.611C250.994 184.542 252.238 183.997 253.722 183.997ZM295.032 210.191C289.545 210.191 284.851 212.176 280.914 216.222C276.97 220.237 274.989 225.108 274.989 230.822C274.989 234.507 275.896 237.922 277.682 241.116C279.494 244.298 281.906 246.759 284.981 248.485C288.014 250.212 291.375 251.076 295.033 251.076C298.686 251.076 302.036 250.212 305.095 248.485C308.143 246.759 310.582 244.298 312.367 241.116C314.159 237.922 315.059 234.507 315.059 230.822C315.059 225.107 313.085 220.237 309.119 216.222C305.18 212.176 300.493 210.191 295.032 210.191ZM295.064 203.728C302.963 203.728 309.523 206.577 314.719 212.274C319.451 217.441 321.808 223.587 321.808 230.687C321.808 237.815 319.321 244.029 314.324 249.349C309.329 254.69 302.904 257.333 295.064 257.333C287.182 257.333 280.718 254.69 275.75 249.349C270.726 244.028 268.239 237.815 268.239 230.687C268.239 223.625 270.597 217.496 275.328 212.317C280.535 206.577 287.112 203.728 295.064 203.728ZM326.502 204.978H333.067V214.135C335.718 210.644 338.641 208.022 341.846 206.316C345.067 204.611 348.556 203.727 352.345 203.727C356.186 203.727 359.601 204.698 362.579 206.634C365.557 208.572 367.747 211.183 369.178 214.474C370.585 217.759 371.287 222.869 371.287 229.808V256.097H364.732V231.743C364.732 225.862 364.462 221.929 363.976 219.959C363.16 216.599 361.694 214.058 359.503 212.348C357.34 210.641 354.509 209.79 351.033 209.79C347.013 209.79 343.426 211.106 340.28 213.739C337.098 216.35 335.004 219.62 334.011 223.493C333.392 226.029 333.067 230.647 333.067 237.359V256.096H326.502V204.978H326.502ZM428.718 225.394C427.834 221.877 426.55 219.077 424.85 216.988C423.144 214.885 420.916 213.196 418.122 211.917C415.345 210.644 412.419 209.986 409.361 209.986C404.289 209.986 399.957 211.604 396.32 214.814C393.643 217.177 391.643 220.69 390.288 225.394H428.718ZM428.649 239.142L434.226 242.077C432.376 245.61 430.282 248.485 427.871 250.665C425.476 252.828 422.805 254.496 419.806 255.645C416.79 256.767 413.418 257.333 409.625 257.333C401.24 257.333 394.68 254.615 389.944 249.159C385.239 243.711 382.865 237.549 382.865 230.686C382.865 224.229 384.877 218.434 388.875 213.384C393.946 206.958 400.744 203.727 409.274 203.727C418.03 203.727 425.045 207.029 430.282 213.627C433.994 218.284 435.893 224.093 435.958 231.064H389.626C389.749 236.983 391.67 241.834 395.339 245.594C399.051 249.387 403.61 251.291 409.043 251.291C411.66 251.291 414.222 250.833 416.693 249.932C419.179 249.026 421.274 247.85 423.027 246.36C424.763 244.859 426.647 242.476 428.649 239.142ZM491.443 225.394C490.563 221.877 489.279 219.077 487.584 216.988C485.885 214.885 483.641 213.196 480.858 211.917C478.09 210.644 475.143 209.986 472.095 209.986C467.024 209.986 462.681 211.604 459.05 214.814C456.374 217.177 454.368 220.69 453.024 225.394H491.443ZM491.389 239.142L496.951 242.077C495.128 245.61 493.018 248.485 490.623 250.665C488.227 252.828 485.53 254.496 482.534 255.645C479.541 256.767 476.147 257.333 472.376 257.333C463.964 257.333 457.421 254.615 452.7 249.159C447.969 243.711 445.589 237.549 445.589 230.686C445.589 224.229 447.607 218.434 451.627 213.384C456.671 206.958 463.501 203.727 471.998 203.727C480.761 203.727 487.775 207.029 493.019 213.627C496.731 218.284 498.63 224.093 498.689 231.064H452.361C452.485 236.983 454.394 241.834 458.091 245.594C461.776 249.387 466.345 251.291 471.778 251.291C474.389 251.291 476.957 250.833 479.429 249.932C481.916 249.026 484.019 247.85 485.752 246.36C487.487 244.859 489.371 242.476 491.389 239.142ZM508.378 204.978H515.143V212.463C517.161 209.511 519.27 207.332 521.51 205.88C523.754 204.462 526.068 203.727 528.492 203.727C530.342 203.727 532.273 204.304 534.346 205.475L530.904 210.978C529.523 210.396 528.368 210.072 527.418 210.072C525.207 210.072 523.091 210.978 521.041 212.78C519.007 214.566 517.442 217.387 516.369 221.164C515.538 224.073 515.143 229.959 515.143 238.807V256.098H508.378V204.978ZM565.809 210.526L561.574 214.906C558.046 211.506 554.571 209.791 551.216 209.791C549.073 209.791 547.245 210.504 545.713 211.917C544.185 213.309 543.413 214.96 543.413 216.837C543.413 218.498 544.034 220.068 545.301 221.573C546.548 223.116 549.202 224.903 553.211 226.969C558.115 229.482 561.449 231.948 563.213 234.294C564.941 236.669 565.809 239.334 565.809 242.301C565.809 246.509 564.315 250.065 561.364 252.972C558.402 255.887 554.705 257.331 550.26 257.331C547.293 257.331 544.493 256.696 541.774 255.417C539.103 254.138 536.874 252.374 535.1 250.097L539.248 245.403C542.632 249.195 546.21 251.074 549.99 251.074C552.634 251.074 554.874 250.231 556.74 248.538C558.585 246.864 559.529 244.873 559.529 242.603C559.529 240.719 558.926 239.052 557.706 237.585C556.455 236.14 553.686 234.316 549.37 232.137C544.753 229.774 541.591 227.421 539.929 225.106C538.273 222.792 537.425 220.164 537.425 217.193C537.425 213.341 538.763 210.13 541.418 207.557C544.088 205.021 547.445 203.727 551.523 203.727C556.249 203.728 561.024 205.999 565.809 210.526Z" fill="#6D6D70"/>
</svg>
